:version 1.10
:name ASF
:units
  mass 1
  length 1
  angle deg
:documentation
  ASF file generated by Kaydara
:root
  axis xyz
  order  tx ty tz rx ry rz
  position 0 0 0
  orientation 0 0 0
:bonedata
  begin
    id 1
    name RightUpLegDummy
    direction -1 2.30186e-007 8.31532e-007
    length 4.46685
    axis 0 0 0 xyz
  end
  begin
    id 2
    name RightUpLeg
    direction -2.30187e-007 -1 1.24343e-010
    length 16.4045
    axis -3.49089 -0.000906625 0.000286804 xyz
    dof rx ry rz
  end
  begin
    id 3
    name RightLeg
    direction -2.30181e-007 -1 -4.17157e-009
    length 17.5097
    axis 3.68512 0.0193738 -0.131023 xyz
    dof rx ry rz
  end
  begin
    id 4
    name RightFoot
    direction 8.31421e-007 -4.51202e-011 1
    length 6.49508
    axis 4.81691e-005 -0.120479 -0.188788 xyz
    dof rx ry rz
  end
  begin
    id 5
    name RightToes
    direction 0.00124746 -0.014064 0.9999
    length 3.85082
    axis 0.000481921 0.542163 -0.142578 xyz
    dof rx ry rz
  end
  begin
    id 6
    name SpineDummy
    direction 0.0717043 0.9409 -0.331007
    length 10.0032
    axis 0 0 0 xyz
  end
  begin
    id 7
    name Spine
    direction 2.30186e-007 1 4.58806e-011
    length 9.84055
    axis -0.001389 0.000121418 2.40972e-006 xyz
    dof rx ry rz
  end
  begin
    id 8
    name Spine1
    direction 0 0 0
    length 0
    axis -0.001389 0.000121451 1.30017e-006 xyz
    dof rx ry rz
  end
  begin
    id 9
    name HEadDummy
    direction -0.00347485 0.950688 -0.310128
    length 8.00997
    axis -0.001389 0.000121451 1.30017e-006 xyz
  end
  begin
    id 10
    name HEad
    direction -0.0222688 0.980941 0.193023
    length 5.12695
    axis -0.001389 0.000121451 1.30017e-006 xyz
    dof rx ry rz
  end
  begin
    id 11
    name LeftShoulder1Dummy
    direction 0.988871 0.146793 -0.0242004
    length 3.5792
    axis -0.001389 0.000121451 1.30017e-006 xyz
  end
  begin
    id 12
    name LeftShoulder1
    direction 0.993832 0.108932 0.020779
    length 4.16823
    axis -0.001389 0.000121451 1.30017e-006 xyz
    dof rx ry rz
  end
  begin
    id 13
    name LeftArm
    direction 1 3.44807e-006 -8.31404e-007
    length 9.91437
    axis -23.1894 0.134784 0.967509 xyz
    dof rx ry rz
  end
  begin
    id 14
    name LeftForeArm
    direction 1 3.44842e-006 -8.31581e-007
    length 9.08575
    axis -9.91835 -0.06569 -0.177793 xyz
    dof rx ry rz
  end
  begin
    id 15
    name LeftHand
    direction 0.992938 -0.0411636 0.11126
    length 5.32135
    axis -0.00960232 -0.00340091 0.185173 xyz
    dof rx ry rz
  end
  begin
    id 16
    name RightShoulderDummy
    direction -0.988871 0.146793 -0.0241962
    length 3.5792
    axis -0.001389 0.000121451 1.30017e-006 xyz
  end
  begin
    id 17
    name RightShoulder
    direction -0.993832 0.108933 0.0207785
    length 4.16823
    axis 0.215806 0.000203643 -0.0068026 xyz
    dof rx ry rz
  end
  begin
    id 18
    name RightArm
    direction -1 3.90912e-006 8.31284e-007
    length 9.91437
    axis -23.2009 -0.134239 -0.964101 xyz
    dof rx ry rz
  end
  begin
    id 19
    name RightForeArm
    direction -1 3.90882e-006 8.31502e-007
    length 9.08575
    axis -9.92322 0.0658061 0.178867 xyz
    dof rx ry rz
  end
  begin
    id 20
    name RightHand
    direction -0.992843 -0.0414603 0.112003
    length 5.28593
    axis -0.00960638 0.00330671 -0.185228 xyz
    dof rx ry rz
  end
  begin
    id 21
    name LeftUpLegDummy
    direction 1 -2.30186e-007 -8.31532e-007
    length 4.46685
    axis 0 0 0 xyz
  end
  begin
    id 22
    name LeftUpLeg
    direction -2.30187e-007 -1 6.00931e-010
    length 16.4045
    axis -3.48766 0.00143442 -0.000524262 xyz
    dof rx ry rz
  end
  begin
    id 23
    name LeftLeg
    direction -2.30187e-007 -1 1.6669e-009
    length 17.5097
    axis 3.68178 -0.00654042 -0.000285133 xyz
    dof rx ry rz
  end
  begin
    id 24
    name LeftFoot
    direction 8.31532e-007 -4.54478e-011 1
    length 6.49508
    axis 1.87233e-006 4.66016e-005 -8.6538e-006 xyz
    dof rx ry rz
  end
  begin
    id 25
    name LeftToes
    direction 0.00818058 -0.00485161 0.999955
    length 3.85048
    axis 1.06247e-005 4.65869e-005 -8.65513e-006 xyz
    dof rx ry rz
  end
:hierarchy
  begin
    root RightUpLegDummy SpineDummy LeftUpLegDummy
    RightUpLegDummy RightUpLeg
    RightUpLeg RightLeg
    RightLeg RightFoot
    RightFoot RightToes
    SpineDummy Spine
    Spine Spine1
    Spine1 HEadDummy LeftShoulder1Dummy RightShoulderDummy
    HEadDummy HEad
    LeftShoulder1Dummy LeftShoulder1
    LeftShoulder1 LeftArm
    LeftArm LeftForeArm
    LeftForeArm LeftHand
    RightShoulderDummy RightShoulder
    RightShoulder RightArm
    RightArm RightForeArm
    RightForeArm RightHand
    LeftUpLegDummy LeftUpLeg
    LeftUpLeg LeftLeg
    LeftLeg LeftFoot
    LeftFoot LeftToes
  end

:SAMPLES-PER-SECOND 30
:FULLY-SPECIFIED
:DEGREES
97
root  52.4675 27.1472 58.2004 19.5831 -22.3197 -2.883
RightUpLeg  -47.4439 -18.1691 13.4611
RightLeg  83.5889 3.6206 19.0515
RightFoot  -19.904 -1.26845 -6.84258
RightToes  -53.0934 -0.330585 -0.376544
Spine  22.9488 -4.21178 -8.12475
Spine1  37.3585 -6.67784 -8.06379
HEad  15.0123 10.6134 11.064
LeftShoulder1  0 -2.42657e-020 -4.95415e-022
LeftArm  -54.1536 -60.688 -45.6328
LeftForeArm  -109.218 -4.42442 -0.471611
LeftHand  9.03103 -24.2027 -40.8216
RightShoulder  0 2.42657e-020 1.07489e-018
RightArm  -5.82741 40.0111 99.7246
RightForeArm  33.3607 30.996 6.07404
RightHand  -1.5071 23.3388 -6.91953
LeftUpLeg  -73.0134 -12.9471 12.6991
LeftLeg  69.7805 -9.37204 -20.1908
LeftFoot  -1.61481 0.00894809 0.634923
LeftToes  -71.2291 1.18758e-006 1.19596e-007
98
root  52.7701 27.5554 58.5595 20.7898 -25.186 -1.15819
RightUpLeg  -52.0567 -22.6392 9.44996
RightLeg  82.915 4.72155 22.9927
RightFoot  -19.0355 -1.30136 -7.37303
RightToes  -57.7076 -0.373032 -0.391881
Spine  22.6512 -4.10452 -8.10054
Spine1  36.7976 -5.56238 -9.58464
HEad  15.17 9.55704 11.7024
LeftShoulder1  0 -2.42657e-020 -4.95415e-022
LeftArm  -51.3816 -58.7771 -50.8381
LeftForeArm  -109.66 -3.11776 -0.241184
LeftHand  9.75351 -26.3969 -40.3633
RightShoulder  0 2.42657e-020 1.07489e-018
RightArm  -6.04394 40.534 101.834
RightForeArm  37.776 30.4826 5.94638
RightHand  -1.77604 23.7241 -8.0731
LeftUpLeg  -74.3624 -15.5357 17.562
LeftLeg  67.546 -12.5016 -23.818
LeftFoot  -1.41282 0.00530377 0.430148
LeftToes  -58.5886 1.18758e-006 1.19596e-007
99
root  51.8113 28.241 58.2678 25.0613 -26.4205 -8.8622
RightUpLeg  -51.8612 -22.8417 16.531
RightLeg  75.3767 5.41372 15.6936
RightFoot  -19.2803 -0.985837 -5.42172
RightToes  -54.2143 -0.340781 -0.380584
Spine  22.3276 -1.67864 -6.32069
Spine1  35.7829 -2.77697 -5.84049
HEad  14.5981 6.83282 13.3804
LeftShoulder1  0 -2.42657e-020 -4.95415e-022
LeftArm  -35.5494 -56.2699 -57.2644
LeftForeArm  -119.334 -4.85862 -0.523671
LeftHand  9.86539 -26.3798 -40.8122
RightShoulder  0 2.42657e-020 1.07489e-018
RightArm  -7.80761 39.3409 100.885
RightForeArm  40.191 32.1978 6.36176
RightHand  -2.29743 24.0488 -10.3884
LeftUpLeg  -70.8653 10.0818 -1.52729
LeftLeg  76.5907 -5.30328 -16.7526
LeftFoot  -13.3622 0.516226 4.40482
LeftToes  -18.5557 1.18758e-006 1.19596e-007
100
root  52.6055 28.8715 58.712 24.9509 -29.7202 -4.14338
RightUpLeg  -57.2016 -28.7575 10.7959
RightLeg  72.9761 3.64698 9.35126
RightFoot  -20.3328 -0.529062 -2.57224
RightToes  -46.6192 -0.2734 -0.349379
Spine  21.728 -2.02134 -6.91842
Spine1  35.1732 -2.24696 -8.46945
HEad  14.8792 6.13825 14.2626
LeftShoulder1  0 -2.42657e-020 -4.95415e-022
LeftArm  -30.2546 -51.0852 -60.807
LeftForeArm  -126.301 -8.68912 -1.18779
LeftHand  9.67632 -26.0258 -40.61
RightShoulder  0 2.42657e-020 1.07489e-018
RightArm  -4.78992 38.1255 99.2034
RightForeArm  42.3798 35.3558 7.17371
RightHand  -3.31568 23.3332 -15.5925
LeftUpLeg  -69.147 -3.1221 8.26319
LeftLeg  64.7913 -10.611 -18.4656
LeftFoot  -5.04236 0.080199 1.82125
LeftToes  -32.5394 1.18758e-006 1.19596e-007
101
root  52.5637 29.5868 58.7636 27.1401 -32.6506 -5.66772
RightUpLeg  -58.9914 -29.5253 11.1296
RightLeg  66.7989 0.646359 1.1384
RightFoot  -18.0329 0.0267663 0.546252
RightToes  -36.4972 -0.191124 -0.294493
Spine  20.8608 -0.868556 -6.30792
Spine1  34.0175 -0.441679 -7.70829
HEad  14.1191 3.64274 14.9924
LeftShoulder1  0 -2.42657e-020 -4.95415e-022
LeftArm  -27.7262 -46.8905 -64.3394
LeftForeArm  -130.495 -9.95179 -1.40654
LeftHand  9.90022 -25.5142 -42.2481
RightShoulder  0 2.42657e-020 1.07489e-018
RightArm  -3.93446 35.6987 95.9035
RightForeArm  49.6165 38.9564 8.17531
RightHand  -4.98829 23.9125 -22.8828
LeftUpLeg  -67.4098 0.831632 7.79537
LeftLeg  62.24 -11.2717 -17.7395
LeftFoot  -5.82793 0.102373 2.01095
LeftToes  -20.5228 1.18758e-006 1.19596e-007
